<svg width="449" height="368" viewBox="0 0 449 368" fill="none" xmlns="http://www.w3.org/2000/svg">
<g filter="url(#filter0_d)">
<path d="M49 45C49 36.7157 55.7157 30 64 30H388C396.284 30 403 36.7157 403 45V76H49V45Z" fill="#2B414D"/>
</g>
<g filter="url(#filter1_d)">
<path d="M30.282 108.184C29.5909 99.4606 36.4839 92 45.2351 92H403.864C412.579 92 419.459 99.4017 418.824 108.093L403.036 324.093C402.463 331.933 395.936 338 388.075 338H62.3444C54.5194 338 48.0091 331.985 47.3912 324.184L30.282 108.184Z" fill="#2B414D"/>
</g>
<path d="M173.468 172.858C190.832 160.008 213.92 152.931 238.478 152.931H256.083V141L305.461 177.54L256.083 214.079V202.148H238.478C209.355 202.148 185.662 219.681 185.662 241.231C185.662 262.782 209.355 280.315 238.478 280.315V289C213.92 289 190.832 281.923 173.468 269.073C156.103 256.223 146.539 239.138 146.539 220.966C146.539 202.793 156.102 185.708 173.468 172.858ZM180.111 261.63C176.145 255.441 173.925 248.523 173.925 241.231C173.925 214.892 202.883 193.463 238.477 193.463H267.345L288.863 177.54L267.345 161.617H238.477C194.254 161.617 158.276 188.241 158.276 220.966C158.276 236.687 166.579 251 180.111 261.63Z" fill="#E4E7E7"/>
<defs>
<filter id="filter0_d" x="19" y="0" width="414" height="106" filterUnits="userSpaceOnUse" color-interpolation-filters="sRGB">
<feFlood flood-opacity="0" result="BackgroundImageFix"/>
<feColorMatrix in="SourceAlpha" type="matrix" values="0 0 0 0 0 0 0 0 0 0 0 0 0 0 0 0 0 0 127 0"/>
<feOffset/>
<feGaussianBlur stdDeviation="15"/>
<feColorMatrix type="matrix" values="0 0 0 0 0 0 0 0 0 0 0 0 0 0 0 0 0 0 0.25 0"/>
<feBlend mode="normal" in2="BackgroundImageFix" result="effect1_dropShadow"/>
<feBlend mode="normal" in="SourceGraphic" in2="effect1_dropShadow" result="shape"/>
</filter>
<filter id="filter1_d" x="0.234131" y="62" width="448.63" height="306" filterUnits="userSpaceOnUse" color-interpolation-filters="sRGB">
<feFlood flood-opacity="0" result="BackgroundImageFix"/>
<feColorMatrix in="SourceAlpha" type="matrix" values="0 0 0 0 0 0 0 0 0 0 0 0 0 0 0 0 0 0 127 0"/>
<feOffset/>
<feGaussianBlur stdDeviation="15"/>
<feColorMatrix type="matrix" values="0 0 0 0 0 0 0 0 0 0 0 0 0 0 0 0 0 0 0.25 0"/>
<feBlend mode="normal" in2="BackgroundImageFix" result="effect1_dropShadow"/>
<feBlend mode="normal" in="SourceGraphic" in2="effect1_dropShadow" result="shape"/>
</filter>
</defs>
</svg>
