<svg width="429" height="348" viewBox="0 0 429 348" fill="none" xmlns="http://www.w3.org/2000/svg">
<g filter="url(#filter0_d)">
<path d="M20 35C20 26.7157 26.7157 20 35 20H322C330.284 20 337 26.7157 337 35V328H35C26.7157 328 20 321.284 20 313V35Z" fill="#2B414D"/>
<path d="M20 35C20 26.7157 26.7157 20 35 20H394C402.284 20 409 26.7157 409 35V106C409 114.284 402.284 121 394 121H35C26.7157 121 20 114.284 20 106V35Z" fill="#2B414D"/>
</g>
<g clip-path="url(#clip0)">
<path d="M275.129 65.0251C233.19 65.0638 192.1 82.7159 162.384 113.461L151.818 124.028L140.584 112.794L107.424 122.154L81 148.577L104.133 171.711L104.133 171.711L105.329 172.907L94.4472 195.356L101.62 202.528L84.0762 220.072L92.3637 228.36L109.907 210.816L118.392 219.301L81.2395 256.453L89.527 264.74L126.679 227.588L135.164 236.073L117.619 253.617L125.907 261.905L143.451 244.36L150.624 251.533L173.073 240.652L197.402 264.981L223.823 238.561L233.216 205.428L221.952 194.165L232.518 183.599C247.172 169.474 259.318 152.057 267.642 133.229C283.452 97.4735 280.649 68.7666 281 65.0196L275.129 65.0251ZM113.549 132.603L137.155 125.94L143.53 132.315L112.42 163.424L97.5746 148.577L113.549 132.603ZM153.015 237.35L108.631 192.965L114.101 181.68L164.301 231.879L153.015 237.35ZM220.063 208.851L213.379 232.43L197.402 248.407L182.556 233.561L213.664 202.453L220.063 208.851ZM224.347 175.196L213.665 185.878L213.664 185.877L174.27 225.272L120.708 171.711C124.657 167.763 156.295 136.126 160.105 132.315C161.338 131.082 155.916 136.505 170.78 121.64C196.883 94.616 232.444 78.5036 269.139 76.8811C267.518 113.602 251.394 149.146 224.347 175.196Z" fill="#E4E7E7"/>
<path d="M224.573 159.19C235 148.763 235.009 131.804 224.592 121.388C219.554 116.35 212.848 113.575 205.708 113.575C190.97 113.575 178.988 125.452 178.992 140.28C178.994 147.423 181.77 154.132 186.809 159.171C197.127 169.488 214.1 169.663 224.573 159.19V159.19ZM205.708 125.296C209.717 125.296 213.481 126.851 216.304 129.675C222.151 135.523 222.143 145.045 216.286 150.902C213.48 153.708 209.725 155.252 205.712 155.252C197.326 155.252 190.714 148.528 190.712 140.277C190.711 136.268 197.499 125.296 205.708 125.296V125.296Z" fill="#E4E7E7"/>
</g>
<defs>
<filter id="filter0_d" x="0" y="0" width="429" height="348" filterUnits="userSpaceOnUse" color-interpolation-filters="sRGB">
<feFlood flood-opacity="0" result="BackgroundImageFix"/>
<feColorMatrix in="SourceAlpha" type="matrix" values="0 0 0 0 0 0 0 0 0 0 0 0 0 0 0 0 0 0 127 0"/>
<feOffset/>
<feGaussianBlur stdDeviation="10"/>
<feColorMatrix type="matrix" values="0 0 0 0 0 0 0 0 0 0 0 0 0 0 0 0 0 0 0.25 0"/>
<feBlend mode="normal" in2="BackgroundImageFix" result="effect1_dropShadow"/>
<feBlend mode="normal" in="SourceGraphic" in2="effect1_dropShadow" result="shape"/>
</filter>
<clipPath id="clip0">
<rect width="200" height="200" fill="white" transform="translate(81 65)"/>
</clipPath>
</defs>
</svg>
